<?xml version="1.0" standalone="no"?><!DOCTYPE svg PUBLIC "-//W3C//DTD SVG 1.1//EN" "http://www.w3.org/Graphics/SVG/1.1/DTD/svg11.dtd"><svg t="1646965664560" class="icon" viewBox="0 0 1024 1024" version="1.1" xmlns="http://www.w3.org/2000/svg" p-id="11730" xmlns:xlink="http://www.w3.org/1999/xlink" width="200" height="200"><defs><style type="text/css"></style></defs><path d="M1010.036364 288.581818L735.418182 13.963636c-13.963636-13.963636-37.236364-13.963636-51.2 0l-279.272727 274.618182c-13.963636 13.963636-13.963636 37.236364 0 51.2l111.70909 111.709091-69.818181 69.818182-111.709091-111.709091c-13.963636-13.963636-37.236364-13.963636-51.2 0L9.309091 684.218182c-13.963636 13.963636-13.963636 37.236364 0 51.2l274.618182 274.618182c4.654545 9.309091 13.963636 13.963636 23.272727 13.963636s18.618182-4.654545 23.272727-9.309091l274.618182-274.618182c4.654545-4.654545 9.309091-13.963636 9.309091-23.272727s-4.654545-18.618182-9.309091-23.272727l-111.709091-111.709091 69.818182-69.818182 111.709091 111.709091c4.654545 4.654545 13.963636 9.309091 23.272727 9.309091s18.618182-4.654545 23.272727-9.309091l274.618182-274.618182c4.654545-4.654545 9.309091-13.963636 9.309091-23.272727 13.963636-23.272727 9.309091-32.581818 4.654546-37.236364z m-474.763637 423.563637l-228.072727 228.072727-228.072727-228.072727 228.072727-228.072728 88.436364 88.436364-111.709091 111.709091 51.2 51.2 111.709091-111.709091 88.436363 88.436364z m172.218182-172.218182l-88.436364-88.436364 111.709091-111.709091-51.2-51.2-111.709091 111.709091-88.436363-88.436364 228.072727-228.072727 228.072727 228.072727-228.072727 228.072728z" p-id="11731"></path></svg>