<?xml version="1.0" standalone="no"?><!DOCTYPE svg PUBLIC "-//W3C//DTD SVG 1.1//EN" "http://www.w3.org/Graphics/SVG/1.1/DTD/svg11.dtd"><svg t="1646965671574" class="icon" viewBox="0 0 1024 1024" version="1.1" xmlns="http://www.w3.org/2000/svg" p-id="11864" xmlns:xlink="http://www.w3.org/1999/xlink" width="200" height="200"><defs><style type="text/css"></style></defs><path d="M988.6 868.5L750.1 629.9c-2.8-2.7-5.8-4.9-8.8-7.2 40.3-61.8 63.8-135.5 63.8-214.8 0-218-176.6-394.6-394.6-394.6-217.9 0-394.6 176.6-394.6 394.6 0 218 176.7 394.7 394.6 394.7 79.3 0 153.1-23.6 215-63.9 2.2 3 4.3 6 7.1 8.7L871.1 986c16.3 16.2 37.5 24.3 58.8 24.3 21.3 0 42.5-8.1 58.8-24.3 32.3-32.4 32.3-85-0.1-117.5M410.5 677.9c-148.9 0-270-121.2-270-270 0-148.9 121.1-270 270-270s270.1 121.2 270.1 270c-0.1 148.9-121.3 270-270.1 270" fill="" p-id="11865"></path></svg>