<?xml version="1.0" standalone="no"?><!DOCTYPE svg PUBLIC "-//W3C//DTD SVG 1.1//EN" "http://www.w3.org/Graphics/SVG/1.1/DTD/svg11.dtd"><svg t="1646966590722" class="icon" viewBox="0 0 1024 1024" version="1.1" xmlns="http://www.w3.org/2000/svg" p-id="25347" xmlns:xlink="http://www.w3.org/1999/xlink" width="200" height="200"><defs><style type="text/css"></style></defs><path d="M683.926656 985.658324a44.729718 44.729718 0 0 0 25.559839 31.949799 31.949799 31.949799 0 0 0 44.729719-6.38996l255.598391-249.208431a31.949799 31.949799 0 0 0 12.779919-25.559839c0-12.77992 0-19.169879-6.38996-25.559839h-6.389959a51.119678 51.119678 0 0 0-57.509638 0L766.996133 883.418968V39.944278a38.339759 38.339759 0 0 0-38.339759-38.339759 44.729718 44.729718 0 0 0-44.729718 38.339759v945.714046z m-338.667868 38.339759l31.949799-12.77992 12.779919-25.559839V39.944278a51.119678 51.119678 0 0 0-25.559839-38.339759 44.729718 44.729718 0 0 0-44.729718 12.779919L12.98088 308.322588a38.339759 38.339759 0 0 0 0 57.509638 38.339759 38.339759 0 0 0 57.509638 0l236.428511-223.648592v843.47469a38.339759 38.339759 0 0 0 38.339759 38.339759z" p-id="25348"></path></svg>