<?xml version="1.0" standalone="no"?><!DOCTYPE svg PUBLIC "-//W3C//DTD SVG 1.1//EN" "http://www.w3.org/Graphics/SVG/1.1/DTD/svg11.dtd"><svg t="1646965684037" class="icon" viewBox="0 0 1024 1024" version="1.1" xmlns="http://www.w3.org/2000/svg" p-id="12132" xmlns:xlink="http://www.w3.org/1999/xlink" width="200" height="200"><defs><style type="text/css"></style></defs><path d="M132.266667 358.4l17.066666 8.533333 345.6 204.8 379.733334-209.066666 21.333333-8.533334 29.866667-17.066666c12.8-8.533333 12.8-29.866667 0-38.4l-29.866667-12.8-25.6-12.8-371.2-200.533334c-8.533333-4.266667-12.8-4.266667-21.333333 0L149.333333 268.8l-17.066666 12.8-34.133334 17.066667c-12.8 8.533333-12.8 29.866667 0 38.4l34.133334 21.333333z m362.666666-196.266667l290.133334 157.866667-290.133334 157.866667-264.533333-157.866667 264.533333-157.866667z" p-id="12133"></path><path d="M925.866667 512l-29.866667-12.8-25.6-12.8-379.733333 209.066667-345.6-209.066667-17.066667 8.533333-29.866667 17.066667c-12.8 8.533333-12.8 29.866667 0 38.4l34.133334 21.333333 17.066666 8.533334 345.6 204.8 379.733334-209.066667 25.6-12.8 29.866666-17.066667c12.8-4.266667 12.8-25.6-4.266666-34.133333z" p-id="12134"></path><path d="M925.866667 682.666667l-29.866667-12.8-25.6-12.8-379.733333 209.066666-345.6-209.066666-17.066667 8.533333-29.866667 17.066667c-12.8 8.533333-12.8 29.866667 0 38.4l34.133334 21.333333 17.066666 8.533333 345.6 204.8 379.733334-209.066666 25.6-12.8 29.866666-17.066667c12.8-4.266667 12.8-25.6-4.266666-34.133333z" p-id="12135"></path></svg>